<svg xmlns="http://www.w3.org/2000/svg" xmlns:xlink="http://www.w3.org/1999/xlink" width="31" height="46" version="1.1" viewBox="0 0 31 46" xml:space="preserve"><g><title>Slice 1</title><desc>Created with Sketch.</desc><g id="Page-1" fill="none" fill-rule="evenodd" stroke="none" stroke-width="1"><g id="hatchling-a-[animals,chicken,farm,owen-davey]" fill="#FFF4E3" fill-rule="nonzero"><path id="Fill-1" d="M31,29.9538857 C31,27.2517143 30.5014167,23.874 29.6140417,20.3753714 L26.0451667,27.3226857 L21.2169167,19.5631429 L16.771,27.8497143 L11.30725,19.6945714 L6.09795833,27.8497143 L1.38725,20.3661714 C0.498583333,23.8674286 0,27.2490857 0,29.9538857 C0,38.8161143 6.93883333,46 15.5,46 C24.0611667,46 31,38.8161143 31,29.9538857"/><path id="Fill-3" d="M15.7531667,0 C9.427875,0 3.9835,10.6798857 1.52416667,20.4305714 L6.273625,28.0232 L11.5255417,19.7497714 L17.0345,28.0232 L21.5165833,19.6157143 L26.384875,27.4896 L29.9834583,20.4397714 C27.5267083,10.6864571 22.0810417,0 15.7531667,0"/></g></g></g></svg>