<svg xmlns="http://www.w3.org/2000/svg" xmlns:xlink="http://www.w3.org/1999/xlink" width="109" height="139" version="1.1" viewBox="0 0 109 139" xml:space="preserve"><g><title>Slice 1</title><desc>Created with Sketch.</desc><g id="Page-1" fill="none" fill-rule="evenodd" stroke="none" stroke-width="1"><g id="ben-a"><g id="Group" transform="translate(48.448598, 87.941828)"><g id="Path"><path fill="#A0640A" d="M16.761039,12.6791878 L4.20779221,12.6791878 C5.75064935,15.9715736 9.46753247,23.5370558 9.46753247,23.5370558 C9.46753247,23.5370558 16.2,23.8172589 18.8649351,22.906599 C18.6545455,21.7857868 17.4623377,15.6913706 16.761039,12.6791878 Z"/><path fill="#000" d="M17.6727273,9.03654822 C17.6727273,9.03654822 16.8311688,1.47106599 8.97662338,0.49035533 C1.12207792,-0.49035533 0.0701298701,3.85279188 0.0701298701,3.85279188 L3.9974026,17.8629442 L19.2155844,18.1431472 L17.6727273,9.03654822 Z"/></g><g id="Path_1_" transform="translate(7.065420, 22.160584)"><g id="Group"><path id="Path" fill="#000" d="M21.8103896,24.1675127 C20.9688312,24.1675127 17.9532468,23.8873096 17.1818182,23.7472081 L11.8519481,25.1482234 C12.0623377,25.6385787 12.3428571,26.3390863 12.6935065,26.7593909 C12.6935065,26.7593909 21.4597403,25.0781726 21.9506494,24.9380711 C22.0207792,24.8680203 21.8103896,24.3076142 21.8103896,24.1675127 Z"/><path id="Path" fill="#F01446" d="M17.1818182,23.7472081 L12.6935065,0.280203046 L0.490909091,0.280203046 C1.82337662,3.01218274 3.01558442,5.60406091 3.2961039,6.30456853 C5.61038961,12.4690355 11.2909091,24.3076142 11.7818182,25.1482234 L17.1818182,23.7472081 Z"/></g><polygon id="Path" fill="#F5CFCF" points="1.894 4.133 13.605 4.063 13.114 1.821 .842 1.681"/><polygon id="Path" fill="#F5CFCF" points="3.647 7.986 14.447 7.355 13.956 5.324 2.525 5.534"/></g></g><g id="Group_1_" transform="translate(3.729336, 84.919930)"><g id="Path_2_" transform="translate(23.214953, 0.000000)"><path id="Path" fill="#A0640A" d="M1.61298701,23.0467005 C2.73506494,21.3654822 2.80519481,19.4040609 2.94545455,17.5827411 C4.34805195,16.4619289 13.6753247,18.5634518 15.4285714,19.2639594 C14.7272727,22.7664975 13.8155844,26.4091371 11.5714286,29.4213198 C10.0285714,29.351269 8.06493506,27.1796954 6.73246753,26.4091371 C5.11948052,25.3583756 3.22597403,24.377665 1.61298701,23.0467005 Z"/><path id="Path" fill="#000" d="M13.3948052,0.910659898 C4.83896104,-1.12081218 2.87532468,6.02436548 2.87532468,6.02436548 L0.21038961,17.8629442 L17.9532468,22.4162437 L20.0571429,10.6477157 C20.0571429,10.577665 22.0909091,2.94213198 13.3948052,0.910659898 Z"/></g><g id="Path_3_" transform="translate(0.000000, 21.853792)"><path id="Path" fill="#000" d="M4.06753247,3.36243655 L3.01558442,3.36243655 C2.31428571,3.64263959 0.420779221,11.6984772 0.21038961,12.5390863 L1.05194805,12.4690355 C1.54285714,11.6284264 2.66493506,9.52690355 3.2961039,8.61624365 L4.83896104,3.78274112 C4.41818182,3.50253807 4.41818182,3.50253807 4.06753247,3.36243655 Z"/><path id="Path" fill="#F01446" d="M19.2155844,15.2010152 C21.5298701,15.271066 23.774026,15.1309645 26.0883117,14.5005076 C28.3324675,14.2203046 30.225974,13.6598985 31.2077922,12.9593909 C32.8207792,11.8385787 35.5558442,8.61624365 36.6779221,7.00507614 L24.6155844,0.210152284 C24.4051948,0.630456853 23.7038961,1.75126904 23.4233766,2.10152284 C21.8805195,4.13299492 19.7064935,5.60406091 17.2519481,6.44467005 C13.1844156,7.56548223 8.13506494,6.02436548 4.76883117,3.71269036 L3.22597403,8.54619289 C6.24155844,10.6477157 9.04675325,12.1888325 12.4831169,13.5898477 C14.4467532,14.4304569 18.8649351,15.2010152 19.2155844,15.2010152 Z"/></g><polygon id="Path_4_" fill="#F5CFCF" points="34.013 32.924 22.582 24.378 23.704 23.047 35.766 31.032"/><polygon id="Path_5_" fill="#F5CFCF" points="28.964 36.146 20.618 26.269 22.021 25.148 32.19 34.885"/></g><path id="Path_6_" fill="#000" d="M66.1324675,97.0203046 L64.4493506,86.6527919 L32.3298701,80.4182741 L29.8753247,90.9258883 C29.8753247,90.8558376 65.0103896,96.8101523 66.1324675,97.0203046 Z"/><g id="Group_2_" transform="translate(34.317757, 0.000000)"><path id="Path_7_" fill="#824600" d="M34.5038961,33.4142132 C34.5038961,33.4142132 40.3246753,35.0253807 42.0077922,29.4913706 C43.6909091,23.9573604 35.5558442,25.5685279 34.5038961,28.3005076 C33.9428571,29.6314721 34.5038961,33.4142132 34.5038961,33.4142132 Z"/><path id="Path_8_" fill="#A0640A" d="M36.8181818,14.080203 C36.3272727,13.3796954 27.3506494,11.4883249 27.3506494,11.4883249 L7.64415584,22.2761421 C8.13506494,24.5177665 8.76623377,26.6893401 9.46753247,28.7908629 C11.7818182,34.2548223 15.7090909,40.1390863 19.8467532,41.4700508 C22.0909091,42.1705584 30.6467532,43.0812183 34.9948052,38.5279188 C37.5194805,35.7959391 40.0441558,30.4720812 39.974026,24.5177665 C39.974026,20.3847716 37.5194805,14.9208122 36.8181818,14.080203 Z"/><path id="Path_9_" fill="#000" d="M5.68051948,9.59695431 L6.31168831,9.17664975 C5.32987013,6.7248731 3.2961039,2.94213198 7.29350649,2.10152284 C9.74805195,1.61116751 13.2545455,4.34314721 13.9558442,6.51472081 C14.3766234,6.7248731 14.3766234,6.7248731 14.7974026,6.44467005 C14.5168831,4.62335025 13.6753247,2.31167513 15.2181818,0.910659898 C19.7766234,-1.68121827 21.9506494,4.76345178 24.6155844,7.35532995 L25.2467532,7.28527919 C25.7376623,5.25380711 24.3350649,2.45177665 27.3506494,2.38172589 C29.3844156,2.31167513 30.2961039,4.06294416 31.2779221,5.39390863 C33.7324675,8.54619289 37.0987013,14.1502538 37.0987013,14.1502538 C37.0987013,14.1502538 37.0987013,17.6527919 31.838961,18.5634518 C29.2441558,19.0538071 24.6857143,16.3218274 17.7428571,19.0538071 C10.8,21.7857868 10.8701299,31.2426396 10.8701299,31.2426396 C10.8701299,31.2426396 3.22597403,17.1624365 2.31428571,15.1309645 C1.61298701,13.5898477 -0.280519481,9.17664975 1.33246753,7.84568528 C2.52467532,6.86497462 4.62857143,8.96649746 5.68051948,9.59695431 Z"/><path id="Path_10_" fill="#A0640A" d="M11.9220779,32.9238579 C11.9220779,32.9238579 6.1012987,34.5350254 4.41818182,29.0010152 C2.73506494,23.4670051 10.8701299,25.0781726 11.9220779,27.8101523 C12.412987,29.1411168 11.9220779,32.9238579 11.9220779,32.9238579 Z"/><path id="Path_11_" fill="#000" d="M22.7922078,31.5228426 C25.8077922,31.8030457 28.5428571,32.9238579 31.3480519,34.1147208 C29.9454545,38.8781726 19.987013,35.8659898 22.7922078,31.5228426 Z"/><path id="Path_12_" fill="#824600" d="M28.2623377,30.0517766 C26.5792208,27.0395939 33.1012987,24.3076142 33.9428571,28.7208122 C34.5038961,32.1532995 30.2961039,30.542132 28.2623377,30.0517766 Z"/><g id="Path_13_" fill="#000" transform="translate(21.196262, 25.489273)"><path id="Path" d="M1.4025974,1.54111675 L0.981818182,2.52182741 L0.280519481,2.52182741 C0.0701298701,1.33096447 0.981818182,-0.49035533 1.4025974,1.54111675 Z"/><path id="Path" d="M16.5506494,4.06294416 L15.9194805,3.9928934 L15.7090909,2.59187817 C16.1298701,2.10152284 16.1298701,2.10152284 16.5506494,2.24162437 C16.761039,2.80203046 16.761039,3.43248731 16.5506494,4.06294416 Z"/></g></g><g id="Group_3_" transform="translate(50.159242, 47.343066)"><path id="Path_14_" fill="#A0640A" d="M54.1402597,15.4111675 C53.5090909,14.7807107 57.2961039,13.1695431 56.9454545,12.6091371 C56.7350649,12.1187817 53.2987013,14.0101523 52.8779221,13.519797 C52.4571429,13.0294416 55.8935065,11.4182741 55.8233766,11.0680203 C55.612987,10.6477157 54.2805195,11.4883249 51.4753247,12.2588832 C50.4935065,12.5390863 48.2493506,13.3796954 47.0571429,13.5898477 C45.5142857,13.8700508 43.9012987,13.8700508 42.2883117,13.8 C42.3584416,13.8700508 34.0831169,12.3989848 31.6987013,11.5583756 C30.2961039,11.0680203 25.5272727,8.54619289 21.3896104,6.79492386 L21.3896104,19.4040609 C25.3168831,20.3147208 34.7844156,22.3461929 43.4103896,20.9451777 C50.4935065,19.7543147 57.225974,15.1309645 57.4363636,14.5705584 C57.9272727,13.3796954 54.7012987,16.0416244 54.1402597,15.4111675 Z"/><path id="Path_15_" fill="#BE0A3C" d="M11.6415584,1.33096447 C11.6415584,1.33096447 3.43636364,-2.7319797 0.561038961,4.62335025 C-2.31428571,11.9786802 10.5194805,17.6527919 10.5194805,17.6527919 C13.3246753,19.0538071 24.3350649,22.5563452 24.3350649,22.5563452 C24.3350649,22.5563452 27.9818182,8.12588832 27.9818182,7.84568528 C27.1402597,7.42538071 11.5012987,1.19086294 11.6415584,1.33096447 Z"/><path id="Path_16_" fill="#824600" d="M48.2493506,15.6913706 C46.5662338,15.6213198 46.1454545,13.8700508 46.1454545,13.8700508 C46.1454545,13.8700508 50.5636364,9.73705584 51.1246753,10.1573604 C51.6155844,10.577665 50.7038961,11.6984772 50.0025974,12.9593909 C51.7558442,14.2203046 50.0025974,15.8314721 48.2493506,15.6913706 Z"/></g><g id="Group_4_" transform="translate(0.000000, 41.299270)"><path id="Path_17_" fill="#824600" d="M9.3974026,36.6365482 C7.15324675,36.0060914 10.3090909,27.2497462 10.8,26.4791878 C11.2207792,27.3898477 10.3792208,36.1461929 9.3974026,36.6365482 Z"/><path id="Path_18_" fill="#A0640A" d="M19.7766234,5.04365482 C16.0597403,7.14517766 12.9038961,10.1573604 10.5896104,13.7299492 C6.17142857,20.4548223 -0.0701298701,36.1461929 0.420779221,36.8467005 C0.911688312,37.5472081 2.03376623,33.1340102 3.36623377,33.6243655 C4.6987013,34.1147208 2.03376623,38.3878173 2.73506494,38.9482234 C3.43636364,39.5086294 5.47012987,34.1847716 6.03116883,34.6050761 C6.59220779,35.0253807 4.48831169,38.7380711 4.90909091,39.0182741 C5.32987013,39.2984772 11.6415584,28.0203046 15.4285714,23.6771574 C17.1116883,21.6456853 20.4077922,17.8629442 22.5818182,16.3218274 C25.387013,14.4304569 29.5246753,13.1695431 33.1714286,13.8 L35.625974,1.19086294 C31.9792208,0.840609137 22.7922078,3.22233503 19.7766234,5.04365482 Z"/><path id="Path_19_" fill="#F01446" d="M40.6753247,0.210152284 C33.1012987,-0.420304569 30.3662338,0.630456853 30.3662338,0.630456853 L31.2077922,14.8507614 C31.2077922,14.8507614 37.6597403,15.1309645 43.3402597,17.5827411 C43.3402597,17.5827411 52.4571429,21.9258883 57.8571429,15.9015228 C63.2571429,9.87715736 60.1714286,6.44467005 60.1714286,6.44467005 C59.961039,6.37461929 48.2493506,0.840609137 40.6753247,0.210152284 Z"/></g><path id="Path_20_" fill="#F01446" d="M69.7792208,65.0771574 C69.9896104,56.5309645 64.7298701,46.0233503 55.0519481,46.8639594 C51.825974,47.1441624 47.8987013,48.0548223 45.2337662,50.0162437 C44.9532468,50.2263959 39.7636364,55.9705584 38.9922078,57.6517766 C35.0649351,65.6375635 27.9818182,85.4619289 27.9818182,85.4619289 L65.7116883,88.7543147 C65.6415584,88.7543147 69.638961,69.6304569 69.7792208,65.0771574 Z"/></g></g></g></svg>