<svg xmlns="http://www.w3.org/2000/svg" xmlns:xlink="http://www.w3.org/1999/xlink" id="Layer_1" width="66.517" height="21.273" x="0" y="0" enable-background="new 4.686 3.914 66.517 21.273" version="1.1" viewBox="4.686 3.914 66.517 21.273" xml:space="preserve"><g><path fill="#272525" d="M27.4,14.17c3.962-3.464,17.219-4.018,20.939,0c0.256,3.17,0,6.299,0,6.299	c-8.029-5.34-12.503-6.17-20.939,0C28.049,17.893,27.4,14.17,27.4,14.17z"/><path fill="#272525" d="M4.686,3.914c4.119,0.342,7.069,0.342,15.791,0.342c8.721,0,15.79,4.611,15.79,10.299	s-7.277,12.189-15.79,10.298C6.574,21.764,4.686,9.602,4.686,3.914z"/><path fill="#272525" d="M71.203,3.914c-4.119,0.342-7.069,0.342-15.79,0.342c-8.721,0-15.79,4.611-15.79,10.299	s7.277,12.189,15.79,10.298C69.315,21.764,71.203,9.602,71.203,3.914z"/><path fill="#FF5646" d="M33.301,14.555c0,3.51-5.236,8.946-12.181,7.402C11.43,19.804,8.57,12.574,7.858,7.09	c2.925,0.13,6.259,0.133,12.619,0.133C28.81,7.223,33.301,11.522,33.301,14.555z"/><path fill="#FF5646" d="M42.588,14.555c0-3.032,4.491-7.332,12.825-7.332c6.358,0,9.694-0.003,12.618-0.133	c-0.712,5.484-3.571,12.714-13.262,14.867C47.824,23.501,42.588,18.064,42.588,14.555z"/></g></svg>