<svg xmlns="http://www.w3.org/2000/svg" xmlns:xlink="http://www.w3.org/1999/xlink" width="56.29" height="46.327" version="1.1" viewBox="0.4 0.02 56.29 46.327"><defs><linearGradient id="grad_1" x1="352.593" x2="352.593" y1="1042.448" y2="1139.941" gradientUnits="userSpaceOnUse"><stop offset="0" stop-color="#EE2A7B"/><stop offset="1" stop-color="#811150"/></linearGradient><linearGradient id="grad_1-0.4632912278175354,0,0,0.4632912278175354,61.25,-9.8" x1="-102.103" x2="-102.103" y1="473.157" y2="518.325" gradientUnits="userSpaceOnUse"><stop offset="0" stop-color="#EE2A7B"/><stop offset="1" stop-color="#811150"/></linearGradient></defs><g id="ID0.16137408139184117"><path id="ID0.6278323931619525" fill="url(#grad_1-0.4632912278175354,0,0,0.4632912278175354,61.25,-9.8)" stroke="#FFF" stroke-width="1.158" d="M 17.835 28.1885 C 17.835 28.1885 40.7605 28.1982 51.1725 28.1982 C 53.8999 28.1982 56.1107 25.9869 56.1107 23.26 C 56.1107 20.5326 53.8999 18.3222 51.1725 18.3222 C 42.4432 18.3222 17.8618 18.312 17.8618 18.312 C 17.8618 18.312 19.5121 16.6419 27.1254 9.0291 C 29.054 7.1004 29.054 3.9741 27.1254 2.0459 C 25.1958 0.1177 22.0699 0.1172 20.1417 2.0459 C 13.9684 8.2183 2.4254 19.7626 2.4254 19.7626 C 0.4972 21.6913 0.4972 24.818 2.4254 26.7458 C 2.4254 26.7458 12.3867 36.7075 19.9999 44.3208 C 21.9295 46.2504 25.0558 46.2504 26.9836 44.3208 C 28.9123 42.3925 28.9123 39.2653 26.9836 37.3385 C 20.8102 31.1633 17.835 28.1885 17.835 28.1885 Z"/></g></svg>