<svg xmlns="http://www.w3.org/2000/svg" xmlns:xlink="http://www.w3.org/1999/xlink" width="155.585" height="135.76" version="1.1" viewBox="-0.151 -0.288 155.585 135.76" xml:space="preserve"><g><title>Slice 1</title><desc>Created with Sketch.</desc><g id="Page-1" fill-rule="evenodd" stroke="none"><g id="dorian-c-[sports,basketball,people,alex-eben-meyer]" fill-rule="nonzero"><g id="Right-Arm"><path id="Shape" fill="#E6BE6E" stroke-width="1" d="M 154.9321 46.8895 C 154.8043 45.5234 148.6362 46.4889 148.6562 44.3457 C 148.6762 42.2025 154.225 42.7433 153.45 41.9662 C 153.0146 41.5175 124.791 41.3813 100.4784 41.201 L 100.4784 51.6766 C 119.9932 52.0131 140.5267 52.2654 140.8543 52.2694 C 143.6826 52.2694 153.2742 52.2454 153.0066 51.5203 C 152.7389 50.7953 148.4724 50.7912 148.8 49.0647 C 149.1276 47.3381 155.0599 48.2595 154.9321 46.8895 Z"/><path id="Shape" fill="#BE965A" stroke-width="1" d="M 144.4816 41.7579 C 144.7652 41.3372 145.1487 41.3573 145.5122 41.161 C 146.9264 40.3598 148.4764 39.4104 148.4684 38.7574 C 148.4684 37.9562 138.2496 39.835 139.6798 45.6877 C 140.8423 50.4547 145.3485 48.2835 145.0768 43.8329 C 145.0369 43.2641 144.2139 42.1825 144.4816 41.7579 Z"/></g><g id="Left-Arm"><path id="Shape" fill="#E6BE6E" stroke-width="1" d="M 57.9692 40.7764 C 33.0134 40.9687 2.293 41.0969 1.8376 41.5776 C 1.0706 42.3788 6.6314 41.7979 6.6314 43.9571 C 6.6314 46.1163 0.4794 45.1349 0.3515 46.5009 C 0.2237 47.8669 6.1521 46.9335 6.4796 48.6641 C 6.8072 50.3947 2.5367 50.3907 2.2691 51.1197 C 2.0014 51.8488 11.593 51.8809 14.4214 51.8688 C 14.7689 51.8688 37.5675 51.5844 57.9652 51.2199 L 57.9692 40.7764 Z"/><path id="Shape" fill="#BE965A" stroke-width="1" d="M 10.818 41.3573 C 10.5344 40.9366 10.1469 40.9567 9.7834 40.7604 C 8.3732 39.9592 6.8192 39.0098 6.8272 38.3568 C 6.8272 37.5556 17.046 39.4344 15.6159 45.2871 C 14.4534 50.0542 9.9512 47.8829 10.2188 43.4323 C 10.2588 42.8635 11.0977 41.7819 10.818 41.3573 Z"/></g><path id="Shape" fill="#006482" stroke-width="1" d="M65.4036082,72.4753709 L58.3247423,76.4813056 C59.0637887,81.6890208 71.8393041,84.8617211 82.6493557,85.5547478 C93.4594072,86.2477745 103.650258,80.5593472 103.650258,80.5593472 L65.4036082,72.4753709 Z"/><rect id="Rectangle-path" width="25.779" height="12.022" x="67.589" y="70.108" fill="#281446" stroke-width="1"/><g id="Right-Leg"><polygon id="Shape" fill="#E6BE6E" stroke-width="1" points="8.514 34.116 14.183 27.446 13.979 17.904 3.349 17.415 4.116 27.823" transform="matrix(1,0,0,1,83,74)"/><polygon id="Shape" fill="linen" stroke-width="1" points="14.37 49.451 14.183 27.446 3.992 27.727 4.803 48.61" transform="matrix(1,0,0,1,83,74)"/><polygon id="Shape" fill="#281446" stroke-width="1" points="16.871 22.331 17.119 .522 .528 .49 2.25 22.583" transform="matrix(1,0,0,1,83,74)"/><polygon id="Shape" fill="#00A0DC" stroke-width="1" points="22.28 59.774 15.673 58.913 4.307 59.538 4.543 60.84 22.592 60.972" transform="matrix(1,0,0,1,83,74)"/><path id="Shape" fill="#281446" stroke-width="1" d="M 104.0977 132.4803 C 102.9045 132.4157 101.7168 132.2725 100.5423 132.0516 L 97.7459 119.485 L 87.2994 119.485 L 87.2994 133.5378 L 105.2762 133.7742 C 105.1185 133.4342 104.985 133.0835 104.8767 132.7246 C 104.6284 132.6104 104.3666 132.5283 104.0977 132.4803 Z"/><ellipse id="Oval" cx="9.165" cy="51.438" fill="#00A0DC" stroke-width="1" rx="3.072" ry="3.081" transform="matrix(1,0,0,1,83,74)"/><polygon id="Shape" fill="#006482" stroke-width="1" points="16.108 48.481 13.052 48.481 12.8 47.7 15.968 47.7" transform="matrix(1,0,0,1,83,74)"/><polygon id="Shape" fill="#00A0DC" stroke-width="1" points="16.452 50.308 13.4 50.308 13.148 49.523 16.312 49.523" transform="matrix(1,0,0,1,83,74)"/><polygon id="Shape" fill="#006482" stroke-width="1" points="16.799 52.131 13.743 52.131 13.491 51.346 16.659 51.346" transform="matrix(1,0,0,1,83,74)"/><polygon id="Shape" fill="#00A0DC" stroke-width="1" points="17.147 53.954 14.091 53.954 13.839 53.168 17.007 53.168" transform="matrix(1,0,0,1,83,74)"/><polygon id="Shape" fill="#006482" stroke-width="1" points="17.49 55.776 14.438 55.776 14.187 54.995 17.355 54.995" transform="matrix(1,0,0,1,83,74)"/></g><g id="Left-Leg"><polygon id="Shape" fill="#E6BE6E" stroke-width="1" points="20.731 35.159 16.86 27.299 19.389 18.097 29.815 20.233 26.532 30.131" transform="matrix(1,0,0,1,42,72)"/><polygon id="Shape" fill="linen" stroke-width="1" points="11.311 48.591 16.86 27.299 26.675 30.071 20.795 50.121" transform="matrix(1,0,0,1,42,72)"/><polygon id="Shape" fill="#00A0DC" stroke-width="1" points="1.128 56.659 7.744 57.448 18.614 60.841 18.066 62.043 .533 57.744" transform="matrix(1,0,0,1,42,72)"/><path id="Shape" fill="#281446" stroke-width="1" d="M 44.5905 127.6972 C 45.7618 127.9263 46.9468 128.0788 48.1379 128.1539 L 53.9304 116.6528 L 59.7789 118.135 L 64.0573 119.2166 L 60.6258 132.8368 L 43.1443 128.6586 C 43.3775 128.3669 43.5897 128.059 43.7795 127.7372 C 44.0472 127.691 44.3195 127.6775 44.5905 127.6972 Z"/><ellipse id="Oval" cx="15.877" cy="51.795" fill="#00A0DC" stroke-width="1" rx="3.072" ry="3.081" transform="matrix(1,0,0,1,42,72)"/><polygon id="Shape" fill="#006482" stroke-width="1" points="9.865 47.229 12.829 47.978 13.265 47.277 10.193 46.5" transform="matrix(1,0,0,1,42,72)"/><polygon id="Shape" fill="#00A0DC" stroke-width="1" points="9.086 48.911 12.046 49.66 12.482 48.963 9.41 48.186" transform="matrix(1,0,0,1,42,72)"/><polygon id="Shape" fill="#006482" stroke-width="1" points="8.307 50.594 11.267 51.343 11.703 50.646 8.631 49.869" transform="matrix(1,0,0,1,42,72)"/><polygon id="Shape" fill="#00A0DC" stroke-width="1" points="7.524 52.276 10.488 53.025 10.924 52.328 7.852 51.551" transform="matrix(1,0,0,1,42,72)"/><polygon id="Shape" fill="#006482" stroke-width="1" points="6.745 53.959 9.705 54.708 10.141 54.011 7.069 53.234" transform="matrix(1,0,0,1,42,72)"/><polygon id="Shape" fill="#281446" stroke-width="1" points="15.502 21.683 20.583 .475 36.674 4.509 29.62 25.508" transform="matrix(1,0,0,1,42,72)"/></g><path id="Shape" fill="#00A0DC" stroke-width="1" d="M106.993943,53.6795252 L106.993943,40.2676558 C106.993943,40.2676558 56.1515464,39.7589021 52.879768,39.8350148 L52.879768,52.1412463 C55.5243557,52.3175074 59.7389175,52.3335312 63.7377577,52.2934718 L64.2570876,52.3135015 L58.3247423,76.4692878 C60.8934278,77.44273 64.8363402,76.8698813 67.580799,76.9259644 C71.507732,76.9940653 75.4426546,76.9259644 79.3615979,77.0461424 C87.0157216,77.3025223 95.996134,80.9639466 103.650258,80.5473294 C103.114948,79.2854599 98.1813144,62.6688427 95.428866,53.3550445 L95.8283505,53.3550445 C99.5155928,53.4952522 103.758119,53.6795252 106.993943,53.6795252 Z"/><g id="Head"><path id="Shape" fill="#BE965A" stroke-width="1" d="M 73.1656 32.0875 C 71.4382 32.1885 69.7062 31.9934 68.0442 31.5107 C 66.6613 31.0189 65.518 30.0158 64.8483 28.7065 C 64.1572 27.4847 63.8097 25.0251 66.1107 23.6631 C 68.4117 22.301 70.9045 23.9395 71.7035 25.2895 C 72.4305 26.5153 72.9139 30.6134 73.1656 32.0875 Z"/><path id="Shape" fill="#642800" stroke-width="1" d="M 70.3093 29.9283 C 70.3093 29.9283 68.3558 28.8507 67.3611 24.6045 C 66.646 21.5399 66.4742 15.5991 67.6847 13.0393 C 70.5769 6.9263 73.5052 3.7055 73.5052 3.7055 L 77.9314 19.6291 L 70.3093 29.9283 Z"/><path id="Shape" fill="#642800" stroke-width="1" d="M 91.0545 29.9323 C 91.0545 29.9323 94.1825 18.1429 91.454 12.3864 C 88.7255 6.6298 85.6655 5.6524 85.6655 5.6524 L 82.6174 15.0022 L 91.0545 29.9323 Z"/><path id="Shape" fill="#E6BE6E" stroke-width="1" d="M 89.4126 32.5923 C 89.8496 30.4091 90.1167 28.1952 90.2116 25.9705 C 92.4048 22.5414 98.1534 21.2034 97.5981 26.9359 C 97.1866 31.05 93.6112 34.0705 89.4126 32.5923 Z"/><path id="Shape" fill="#E6BE6E" stroke-width="1" d="M 86.8799 16.7007 L 72.6662 16.6447 C 71.3759 18.3392 69.0709 21.9365 68.7713 25.0571 C 68.7713 25.1933 68.5076 30.5212 70.4611 34.2187 C 71.5517 36.2818 74.0165 37.4234 75.934 37.8721 C 80.4841 38.9617 86.6522 38.0764 89.6443 33.9623 C 90.8068 32.3599 90.9307 30.7816 91.0385 29.4556 C 91.7976 20.0297 88.5697 17.9266 86.8799 16.7007 Z"/><path id="Shape" fill="#642800" stroke-width="1" d="M 89.4845 18.8279 C 87.7108 19.4208 71.9951 20.0858 70.1535 19.8134 C 69.754 17.2896 79.7411 0.2123 79.7411 0.2123 C 79.7411 0.2123 89.4845 16.3362 89.4845 18.8279 Z"/><path id="Shape" fill="#BE965A" stroke-width="1" d="M 78.4188 26.4993 C 79.3877 27.6636 80.0802 29.0333 80.4442 30.5052 C 78.9501 31.0139 76.753 31.2343 75.2509 30.7295 C 75.2349 29.2433 75.97 26.4392 78.4188 26.4993 Z"/><path id="Shape" fill="#000" stroke-width="1" d="M 76.4853 33.6499 C 76.5429 33.8248 76.6384 33.9849 76.7649 34.1185 C 77.4802 34.1078 78.1954 34.1425 78.9062 34.2227 L 78.9781 34.1746 C 79.1312 34.0471 79.2019 33.8454 79.1619 33.6499 C 78.299 33.5978 77.3682 33.6218 76.4853 33.6499 Z"/><path id="Shape" fill="#000" stroke-width="1" d="M 71.3399 27.3685 C 70.3532 27.3685 70.7407 25.9745 70.9844 25.4537 C 71.1006 25.3647 71.2476 25.326 71.3924 25.3463 C 71.5373 25.3667 71.668 25.4443 71.7554 25.5619 C 71.9034 26.1961 71.75 26.8633 71.3399 27.3685 Z"/><path id="Shape" fill="#000" stroke-width="1" d="M 83.6161 27.5608 C 82.6414 27.693 82.8171 26.2669 82.9969 25.7181 C 83.0998 25.6062 83.2446 25.5425 83.3964 25.5425 C 83.5482 25.5425 83.693 25.6062 83.7959 25.7181 C 84.0283 26.3265 83.9617 27.0091 83.6161 27.5608 Z"/><polygon id="Shape" fill="#642800" stroke-width="1" points="20.647 17.454 27.106 27.485 27.666 19.196" transform="matrix(1,0,0,1,64,0)"/></g></g></g></g></svg>