<svg xmlns="http://www.w3.org/2000/svg" xmlns:xlink="http://www.w3.org/1999/xlink" width="243" height="250" version="1.1" viewBox="0 0 243 250" xml:space="preserve"><g><title>Slice 1</title><desc>Created with Sketch.</desc><g id="Page-1" fill="none" fill-rule="evenodd" stroke="none" stroke-width="1"><g id="City_FoodTruck-01" transform="translate(1.000000, 1.000000)"><g id="Group" transform="translate(15.587065, 62.898551)"><rect id="Rectangle" width="4.532" height="30.149" x="17.164" y="2.228" fill="#D974E8" stroke="#5E154D" stroke-width=".6" rx="2.266"/><g id="Path"><path fill="#8B49D4" stroke="#5E154D" stroke-width=".6" d="M45.8259701,9.69236715 L27.9068408,9.69236715 C25.4444876,9.40751729 23.2032143,8.13643773 21.695995,6.17004831 L21.695995,28.4780676 C23.2032143,26.5116782 25.4444876,25.2405987 27.9068408,24.9557488 L45.8259701,24.9557488 C50.044134,24.9557486 53.4636314,21.5389242 53.4636314,17.324058 C53.4636314,13.1091917 50.044134,9.69236739 45.8259701,9.69236715 Z"/><polygon fill="#8B49D4" stroke="#5E154D" stroke-width=".6" points="41.168 24.956 45.364 24.956 45.364 36.152 41.168 36.152"/><path stroke="#FFF" stroke-width=".6" d="M45.3643532,13.214686 C47.6820256,13.214686 49.5608706,15.092062 49.5608706,17.4079227"/><path stroke="#5E154D" stroke-linecap="round" stroke-width="1.2" d="M7.55373134,17.324058 L0.419651741,17.324058"/><path stroke="#5E154D" stroke-linecap="round" stroke-width="1.2" d="M7.55373134,28.8554589 L2.09825871,34.2647343"/><path stroke="#5E154D" stroke-linecap="round" stroke-width="1.2" d="M2.09825871,0.383381643 L7.55373134,5.792657"/></g></g><g id="Group" transform="translate(5.395522, 98.840580)"><path id="Path" fill="#F7C1D8" d="M229.879229,95.5638647 L0.119900498,95.5638647 L0.119900498,77.9942029 C-0.40993419,74.392043 1.36632575,70.8423004 4.56820896,69.1045411 L29.411592,51.7864734 L36.4617413,6.66724638 C36.8679774,3.20405523 39.6570964,0.504756419 43.134204,0.209661836 L223.962139,0.209661836 C227.739005,0.209661836 229.879229,2.30628019 229.879229,6.70917874 L229.879229,95.5638647 Z"/><path id="Path" fill="#DA53D6" d="M0.119900498,94.4316908 L0.119900498,131.541836 L28.2365672,131.541836 C28.1681697,124.711496 30.8592082,118.142192 35.7009002,113.320069 C40.5425922,108.497947 47.1257954,105.830494 53.9612189,105.921159 C60.6983104,105.869069 67.1617595,108.581171 71.8417295,113.423927 C76.5217001,118.266683 79.0083003,124.815948 78.7206716,131.541836 L152.285622,131.541836 C152.847212,117.555193 164.358131,106.505483 178.366978,106.505483 C192.375824,106.505483 203.886743,117.555193 204.448333,131.541836 L229.879229,131.541836 L229.879229,94.4316908 L0.119900498,94.4316908 Z"/></g><polygon id="Path" fill="#5E154D" stroke="#5E154D" stroke-linecap="round" stroke-linejoin="round" stroke-width="1.512" points="125.872 86.932 131.117 86.932 131.117 99.05 125.872 99.05"/><polygon id="Path" fill="#5E154D" stroke="#5E154D" stroke-linecap="round" stroke-linejoin="round" stroke-width="1.512" points="196.625 86.806 201.87 86.806 201.87 98.924 196.625 98.924"/><g id="Group" transform="translate(40.166667, 118.009662)"><path id="Path" fill="#B3E0D7" d="M9.87380597,0.497198068 C7.85947761,0.497198068 5.97104478,1.00038647 5.42549751,4.69043478 L0.557537313,38.2363285 C0.577121237,39.3071878 1.10726846,40.3043318 1.98435323,40.92 L12.1399254,0.287536232 L9.87380597,0.497198068 Z"/><path id="Path" fill="#B3E0D7" d="M15.8328607,0.539130435 L5.50942786,41.9263768 L15.2453483,41.9263768 C17.2617234,41.9263768 18.8963184,40.2930595 18.8963184,38.2782609 L18.8963184,4.14531401 C18.8818591,2.36133126 17.5921789,0.843169869 15.8328607,0.539130435 Z"/><path id="Path" fill="#D4FFF5" d="M15.2453483,0.497198068 L12.1399254,0.497198068 L1.98435323,41.1296618 C2.65553296,41.6521463 3.48360512,41.9328797 4.33440299,41.9263768 L5.50942786,41.9263768 L15.8328607,0.539130435 L15.2453483,0.497198068 Z"/><path id="Path" stroke="#5E154D" stroke-linejoin="round" stroke-width="1.512" d="M15.8328607,0.539130435 L9.87380597,0.539130435 C7.85947761,0.539130435 5.97104478,1.04231884 5.42549751,4.73236715 L0.557537313,38.2782609 C0.577121237,39.3491202 1.10726846,40.3462642 1.98435323,40.9619324 C2.65553296,41.4844168 3.48360512,41.7651502 4.33440299,41.7586473 L15.2453483,41.7586473 C17.2617234,41.7586473 18.8963184,40.1253301 18.8963184,38.1105314 L18.8963184,4.14531401 C18.8818591,2.36133126 17.5921789,0.843169869 15.8328607,0.539130435 Z"/></g><g id="Group" transform="translate(132.490050, 109.623188)"><polygon id="Path" fill="#B3E0D7" points="48.943 17.312 48.943 62.222 57.924 62.222 69.171 17.312"/><polygon id="Path" fill="#D4FFF5" points="69.171 17.312 57.924 62.222 63.967 62.222 75.214 17.312"/><polygon id="Path" fill="#D4FFF5" points="78.613 17.312 67.408 62.222 70.807 62.222 82.054 17.312"/><polygon id="Path" fill="#B3E0D7" points="75.214 17.312 63.967 62.222 67.408 62.222 78.613 17.312"/><polygon id="Path" fill="#B3E0D7" points="83.439 17.312 82.054 17.312 70.807 62.222 83.439 62.222"/><g id="Path" stroke="#5E154D" stroke-linejoin="round" stroke-width="1.512"><polygon fill="#996CD4" stroke-linecap="round" points=".264 62.222 87.971 62.222 87.971 66.75 .264 66.75"/><polygon fill="#EA3681" points="83.774 .455 44.201 .455 44.075 .455 4.46 .455 .767 17.312 44.075 17.312 44.201 17.312 87.467 17.312"/><polygon fill="#43C3D7" stroke-linecap="round" points="4.838 17.312 48.943 17.312 48.943 62.222 4.838 62.222"/><polygon fill="#5E154D" stroke-linecap="round" points="4.838 66.75 9.035 66.75 9.035 73.879 4.838 73.879"/><polygon fill="#5E154D" stroke-linecap="round" points="79.788 66.75 83.984 66.75 83.984 73.879 79.788 73.879"/><polygon stroke-linecap="round" points="48.943 17.312 83.439 17.312 83.439 62.222 48.943 62.222"/></g></g><g id="Group" transform="translate(66.544776, 118.009662)"><path id="Path" fill="#FC9FE4" stroke="#5E154D" stroke-linejoin="round" stroke-width="1.512" d="M47.954204,0.497198068 L4.05863184,0.497198068 C2.04225671,0.497198068 0.407661692,2.13051522 0.407661692,4.14531401 L0.407661692,79.8751691 C12.5685232,81.8272142 22.219376,91.152427 24.579602,103.231498 L47.8702736,103.231498 C49.8540043,103.208842 51.4566052,101.607494 51.4792786,99.625314 L51.4792786,4.14531401 C51.480449,2.17863685 49.9212498,0.565014189 47.954204,0.497198068 Z"/><polygon id="Path" fill="#B3E0D7" points="7.961 9.345 7.961 42.43 12.578 42.43 20.845 9.345"/><polygon id="Path" fill="#D4FFF5" points="20.845 9.345 12.578 42.43 18.663 42.43 26.888 9.345"/><polygon id="Path" fill="#B3E0D7" points="26.888 9.345 18.663 42.43 22.062 42.43 30.287 9.345"/><polygon id="Path" fill="#D4FFF5" points="30.287 9.345 22.062 42.43 25.503 42.43 33.728 9.345"/><polygon id="Path" fill="#B3E0D7" points="44.051 9.345 33.728 9.345 25.503 42.43 44.051 42.43"/><polygon id="Path" stroke="#D974E8" stroke-linejoin="round" stroke-width="1.512" points="7.961 53.793 12.158 53.793 12.158 62.809 7.961 62.809"/></g><g id="Group" transform="translate(0.000000, 98.840580)"><g id="Path"><polygon fill="#F7C1D8" stroke="#5E154D" stroke-width="2.016" points=".186 97.493 5.557 97.493 5.557 108.353 .186 108.353"/><polygon stroke="#FC9FE4" stroke-width="1.512" points="19.826 108.311 28.219 108.311 28.219 112.966 19.826 112.966"/><polygon fill="#8B49D4" stroke="#5E154D" stroke-width="2.016" points="235.275 97.493 240.814 97.493 240.814 108.353 235.275 108.353"/><path stroke="#000" stroke-width="2.016" d="M45.0885821,72.9623188 L55.9575622,72.9623188"/><path stroke="#000" stroke-width="2.016" d="M45.0885821,77.7426087 L55.9575622,77.7426087"/><path stroke="#000" stroke-width="2.016" d="M45.0885821,82.5648309 L55.9575622,82.5648309"/><path stroke="#5E154D" stroke-width="2.016" d="M229.357662,0.209661836 L48.5297264,0.209661836 C45.0526188,0.504756419 42.2635,3.20405523 41.8572637,6.66724638 L34.8071144,51.7864734 L9.96373134,69.1045411 C6.76184815,70.8423004 4.98558816,74.392043 5.51542289,77.9942029 L5.51542289,131.541836 L33.6320896,131.541836 C33.6427184,124.662198 36.408383,118.072957 41.3121818,113.243891 C46.2159811,108.414826 52.8499836,105.747649 59.7344279,105.837295 C73.3082601,106.808576 83.9098387,117.946976 84.2001244,131.541836 L157.681144,131.541836 C157.750438,117.186334 169.416582,105.585533 183.783483,105.5857 C198.135572,105.5857 208.962587,119.087923 209.340274,131.541836 L235.274751,131.541836 L235.274751,6.70917874 C235.274751,2.30628019 233.134527,0.209661836 229.357662,0.209661836 Z"/></g><polygon id="Path" fill="#D974E8" stroke="#5E154D" stroke-width="2.016" points="8.537 118.501 8.537 108.311 2.074 108.311 2.074 131.542 14.958 131.542 14.958 118.501"/><path id="Path" fill="#FDBB38" stroke="#5E154D" stroke-width="1.512" d="M59.0629851,111.330435 C70.9106979,111.650674 80.2804908,121.46254 80.0455721,133.302995 L86.2983831,133.302995 C87.295945,122.940107 82.3259969,112.908431 73.4740938,107.417593 C64.6221908,101.926755 53.4198492,101.926755 44.5679462,107.417593 C35.7160433,112.908431 30.7460946,122.940107 31.7436567,133.302995 L37.9964677,133.302995 C37.7620769,121.430636 47.1822104,111.605355 59.0629851,111.330435 Z"/><path id="Path" fill="#FDBB38" stroke="#5E154D" stroke-width="1.512" d="M183.11204,111.330435 C194.949728,111.673202 204.306555,121.471491 204.094627,133.302995 L210.347438,133.302995 C211.345,122.940107 206.375052,112.908431 197.523149,107.417593 C188.671246,101.926755 177.468904,101.926755 168.617001,107.417593 C159.765098,112.908431 154.795149,122.940107 155.792711,133.302995 L162.003557,133.302995 C161.792578,121.423707 171.224771,111.605407 183.11204,111.330435 Z"/><path id="Path" stroke="#FFF" stroke-linecap="round" stroke-width="1.512" d="M11.5164428,121.729662 L11.5164428,127.600193"/></g><g id="Group" transform="translate(14.388060, 103.632850)"><g id="Path" stroke="#FFF" stroke-linecap="round" stroke-width="2.52"><path d="M7.53574627,0.491207729 L13.1590796,0.491207729 C14.5593033,0.366992107 15.9407813,0.881259128 16.9183569,1.89063082 C17.8959326,2.90000256 18.3650431,4.29651554 18.1949005,5.69082126 L18.1949005,11.9806763" transform="translate(197.236318, 0.000000)"/><path d="M0.401666667,0.491207729 L3.7588806,0.491207729" transform="translate(197.236318, 0.000000)"/></g><g id="Path" stroke="#CC48CC" stroke-linecap="round" stroke-width="1.512"><path d="M112.280821,5.15169082 L115.428209,2.97120773" transform="translate(0.000000, 94.048309)"/><path d="M129.780299,1.00038647 L130.703532,4.73236715" transform="translate(0.000000, 94.048309)"/><path d="M121.722985,12.2382609 L121.261368,16.0541063" transform="translate(0.000000, 94.048309)"/><path d="M88.1508458,28.5918841 L91.7598507,27.2500483" transform="translate(0.000000, 94.048309)"/><path d="M4.05263682,1.83903382 L0.569527363,3.47439614" transform="translate(0.000000, 94.048309)"/><path d="M9.08845771,25.4050242 L10.2215174,21.7149758" transform="translate(0.000000, 94.048309)"/><path d="M21.8458706,5.99033816 L19.9154726,2.67768116" transform="translate(0.000000, 94.048309)"/><path d="M39.3453483,0.497198068 L35.5265174,0.748792271" transform="translate(0.000000, 94.048309)"/><path d="M59.6145274,7.03864734 L56.7608955,4.43884058" transform="translate(0.000000, 94.048309)"/><path d="M71.0710199,19.3667633 L71.0710199,15.5089855" transform="translate(0.000000, 94.048309)"/><path d="M132.088383,24.7760386 L131.165149,21.044058" transform="translate(0.000000, 94.048309)"/><path d="M140.565348,10.7286957 L137.41796,12.9091787" transform="translate(0.000000, 94.048309)"/><path d="M151.182537,4.43884058 L148.916418,1.29391304" transform="translate(0.000000, 94.048309)"/><path d="M168.975771,0.832657005 L165.114975,0.622995169" transform="translate(0.000000, 94.048309)"/><path d="M185.384154,1.21004831 L182.740348,4.06144928" transform="translate(0.000000, 94.048309)"/><path d="M198.183532,9.68038647 L195.078109,7.41603865" transform="translate(0.000000, 94.048309)"/><path d="M208.003383,1.96483092 L204.394378,3.30666667" transform="translate(0.000000, 94.048309)"/><path d="M212.871343,9.93198068 L212.241866,13.7058937" transform="translate(0.000000, 94.048309)"/><path d="M212.1999,25.9082126 L210.437363,22.5116908" transform="translate(0.000000, 94.048309)"/><path d="M200.03,20.0376812 L203.177388,17.8152657" transform="translate(0.000000, 94.048309)"/><path d="M112.910299,22.9310145 L116.519303,24.1889855" transform="translate(0.000000, 94.048309)"/></g><polygon id="Path" stroke="#5E154D" stroke-width="1.512" points="60.118 23.722 96.208 23.722 96.208 56.764 60.118 56.764"/><g id="Path" stroke="#5E154D" stroke-linecap="round" stroke-width="1.512"><path fill="#FFF" d="M0,0.539130435 L0,5.36135266 C2.2181592e-07,8.02459225 2.16067173,10.1835745 4.82599502,10.1835745 C7.49131828,10.1835745 9.65198981,8.02459225 9.65199005,5.36135266 L9.65199005,0.539130435 L0,0.539130435 Z" transform="translate(118.701493, 22.763285)"/><path fill="#F7C1D8" d="M9.81985075,0.539130435 L9.81985075,5.36135266 C9.64921621,7.18380636 10.5259137,8.94567893 12.0830945,9.90972549 C13.6402754,10.873772 15.609451,10.873772 17.1666319,9.90972549 C18.7238126,8.94567893 19.6005102,7.18380636 19.4298756,5.36135266 L19.4298756,0.539130435 L9.81985075,0.539130435 Z" transform="translate(118.701493, 22.763285)"/><path fill="#FFF" d="M19.4298756,0.539130435 L19.4298756,5.36135266 C19.4298756,8.02459243 21.5905472,10.1835749 24.2558706,10.1835749 C26.9211941,10.1835749 29.0818657,8.02459243 29.0818657,5.36135266 L29.0818657,0.539130435 L19.4298756,0.539130435 Z" transform="translate(118.701493, 22.763285)"/><path fill="#F7C1D8" d="M29.0818657,0.539130435 L29.0818657,5.36135266 C28.9112311,7.18380636 29.7879286,8.94567893 31.3451094,9.90972549 C32.9022903,10.873772 34.8714659,10.873772 36.4286468,9.90972549 C37.9858276,8.94567893 38.8625251,7.18380636 38.6918905,5.36135266 L38.6918905,0.539130435 L29.0818657,0.539130435 Z" transform="translate(118.701493, 22.763285)"/><path fill="#FFF" d="M38.6918905,0.539130435 L38.6918905,5.36135266 C38.6918905,8.02459243 40.8525621,10.1835749 43.5178856,10.1835749 C46.1832092,10.1835749 48.3438806,8.02459243 48.3438806,5.36135266 L48.3438806,0.539130435 L38.6918905,0.539130435 Z" transform="translate(118.701493, 22.763285)"/><path fill="#F7C1D8" d="M48.3438806,0.539130435 L48.3438806,5.36135266 C48.3438806,8.02459243 50.504552,10.1835749 53.1698756,10.1835749 C55.8351992,10.1835749 57.9958706,8.02459243 57.9958706,5.36135266 L57.9958706,0.539130435 L48.3438806,0.539130435 Z" transform="translate(118.701493, 22.763285)"/><path fill="#FFF" d="M57.9958706,0.539130435 L57.9958706,5.36135266 C57.8252361,7.18380636 58.7019334,8.94567893 60.2591148,9.90972549 C61.8162956,10.873772 63.7854706,10.873772 65.3426513,9.90972549 C66.8998327,8.94567893 67.7765301,7.18380636 67.6058955,5.36135266 L67.6058955,0.539130435 L57.9958706,0.539130435 Z" transform="translate(118.701493, 22.763285)"/><path fill="#F7C1D8" d="M67.6058955,0.539130435 L67.6058955,5.36135266 C67.6058955,8.02459243 69.7665666,10.1835749 72.4318905,10.1835749 C75.0972139,10.1835749 77.2578856,8.02459243 77.2578856,5.36135266 L77.2578856,0.539130435 L67.6058955,0.539130435 Z" transform="translate(118.701493, 22.763285)"/><path fill="#FFF" d="M77.2578856,0.539130435 L77.2578856,5.36135266 C77.087251,7.18380636 77.9639484,8.94567893 79.5211298,9.90972549 C81.0783105,10.873772 83.0474855,10.873772 84.6046663,9.90972549 C86.1618476,8.94567893 87.038545,7.18380636 86.8679104,5.36135266 L86.8679104,0.539130435 L77.2578856,0.539130435 Z" transform="translate(118.701493, 22.763285)"/></g><ellipse id="Oval" cx="44.591" cy="127.211" fill="#5E154D" stroke="#5E154D" stroke-linecap="round" stroke-width="2.016" rx="16.66" ry="16.647"/></g><ellipse id="Oval" cx="58.979" cy="230.844" fill="#C5A2FC" stroke="#C5A2FC" stroke-width="1.008" rx="8.855" ry="8.848"/><ellipse id="Oval" cx="58.979" cy="230.844" fill="#FFF" stroke="#8B49D4" stroke-linecap="round" stroke-linejoin="round" stroke-width="1.512" rx="5.204" ry="5.2"/><ellipse id="Oval" cx="183.112" cy="230.844" fill="#5E154D" stroke="#5E154D" stroke-linecap="round" stroke-linejoin="round" stroke-width="2.016" rx="16.66" ry="16.647"/><ellipse id="Oval" cx="183.112" cy="230.844" fill="#C5A2FC" stroke="#C5A2FC" stroke-width="1.008" rx="8.855" ry="8.848"/><ellipse id="Oval" cx="183.112" cy="230.844" fill="#FFF" stroke="#8B49D4" stroke-linecap="round" stroke-linejoin="round" stroke-width="1.512" rx="5.204" ry="5.2"/><g id="Group" transform="translate(104.912935, 19.768116)"><path id="Path" fill="#FDE982" stroke="#E89F1F" stroke-width="1.512" d="M41.3536816,0.449275362 L110.93194,36.1337198 L115.674005,48.4618357 C114.540945,52.6550725 96.2860945,74.3341063 67.4560199,80.8336232 C37.6187811,87.5428019 7.61368159,82.6786473 4.50825871,79.9530435 C4.50825871,79.9530435 0.689427861,67.9184541 0.311741294,65.9895652 L41.3536816,0.449275362 Z"/><path id="Path" stroke="#FFF" stroke-linecap="round" stroke-width="1.512" d="M7.19402985,69.9731401 C7.19402985,69.9731401 39.8009701,75.9275362 66.1970647,69.4280193 C82.7263236,65.0378047 97.371429,55.3801807 107.910448,41.9203865"/><g id="Path" stroke="#FDBB38" transform="translate(11.990050, 8.386473)"><path stroke-linecap="round" stroke-width="2.016" d="M52.9480597,20.2413527 L50.59801,11.1839614"/><polygon stroke-width="2.1" points="16.115 23.634 32.493 23.629 32.487 40 16.11 40.005" transform="translate(24.301163, 31.816992) rotate(29.886527) translate(-24.301163, -31.816992)"/><polygon stroke-width="1.512" points="26.3 3.065 42.621 3.06 42.616 19.375 26.294 19.38" transform="translate(34.457762, 11.219836) rotate(30.000000) translate(-34.457762, -11.219836)"/><polygon fill="#FDBB38" stroke-width="1.512" points="30.848 10.9 40.499 10.896 40.495 20.543 30.845 20.546" transform="translate(35.671889, 15.721182) rotate(30.000000) translate(-35.671889, -15.721182)"/><polygon stroke-width="1.512" points="56.557 33.45 42.457 25.315 50.598 11.184 64.698 19.109"/><polygon stroke-width="1.512" points="34.275 33.678 50.596 33.673 50.591 49.988 34.27 49.993" transform="translate(42.433027, 41.833173) rotate(30.000000) translate(-42.433027, -41.833173)"/><path stroke-width="1.512" d="M23.7822637,57.854686 L27.9787811,50.3068599 L39.519204,56.9741063 C36.6409978,57.4110799 33.7411035,57.6910443 30.8324129,57.8127536 C28.4855055,57.9727562 26.130911,57.9867604 23.7822637,57.854686 Z"/><path stroke-width="1.512" d="M60.1660697,51.2713043 C57.2331554,52.5922194 54.2196488,53.7266529 51.1435572,54.6678261 L58.6553234,41.6268599 L68.2653483,47.12 C68.2653483,47.12 64.6143781,49.2585507 60.1660697,51.2713043 Z"/><path stroke-width="1.512" d="M5.56937811,56.261256 L0.575522388,53.4098551 L8.71676617,39.2786473 L22.8590299,47.4135266 L17.4035572,57.4772947 C17.4035572,57.4772947 15.431194,57.4772947 11.6962935,57.0999034 C7.96139303,56.7225121 5.56937811,56.261256 5.56937811,56.261256 Z"/><path stroke-width="1.512" d="M73.7208209,43.2622222 L61.6768159,36.3014493 L69.8180597,22.2121739 L86.3103731,31.7308213 C84.5131666,33.7473081 82.6079537,35.6650296 80.6031095,37.4755556 C76.8262438,40.9140097 73.7208209,43.2622222 73.7208209,43.2622222 Z"/><polygon fill="#FDBB38" stroke-width="1.512" points="49.887 21.991 59.537 21.987 59.534 31.634 49.884 31.637" transform="translate(54.710461, 26.812155) rotate(30.000000) translate(-54.710461, -26.812155)"/><polygon fill="#FDBB38" stroke-width="1.512" points="73.721 43.262 66.964 39.363 71.79 31.018 81.526 36.595"/><polygon fill="#FDBB38" stroke-width="1.512" points="19.489 30.588 29.139 30.585 29.136 40.231 19.486 40.235" transform="translate(24.312214, 35.409765) rotate(30.000000) translate(-24.312214, -35.409765)"/><polygon fill="#FDBB38" stroke-width="1.512" points="38.787 41.461 48.437 41.458 48.434 51.104 38.784 51.108" transform="translate(43.610810, 46.282854) rotate(30.000000) translate(-43.610810, -46.282854)"/><polygon fill="#FDBB38" stroke-width="1.512" points="17.404 57.477 5.905 56.429 10.731 48.043 19.712 53.242"/><path stroke-width="1.512" d="M22.5652736,28.8374879 L20.0893284,19.7800966"/><path stroke-width="1.512" d="M41.8692537,39.6560386 L39.4772388,30.7244444"/><path stroke-width="1.512" d="M10.7310945,48.0425121 L8.71676617,39.2786473"/><path stroke-width="1.512" d="M71.7904229,31.017971 L69.8180597,22.2121739"/><path stroke-width="1.512" d="M58.6553234,41.6268599 L60.6696517,51.0197101"/><path stroke-width="1.512" d="M28.1466418,50.3068599 L29.6993532,57.854686"/></g></g><path id="Path" fill="#FFF" stroke="#FC9FE4" stroke-linecap="round" stroke-linejoin="round" stroke-width="1.512" d="M150.421169,19.4626087 C144.715496,16.9848541 138.076019,18.2121971 133.6351,22.5656039 C131.921687,24.5683459 131.120055,27.1934484 131.422604,29.8108468 C131.725155,32.4282452 133.104572,34.80163 135.229776,36.3613527 C139.88791,38.8772947 141.146866,36.3613527 144.420149,37.8709179 C147.02199,39.0869565 147.10592,41.6448309 151.218507,42.3996135 C155.331095,43.1543961 156.422189,41.8125604 159.275821,43.0705314 C162.129453,44.3285024 163.220547,49.5700483 167.668856,49.1507246 C172.998433,48.6475362 171.445721,43.1543961 174.8449,40.3868599 C178.24408,37.6193237 182.566493,39.8836715 184.706716,34.0550725 C186.469254,29.1070531 182.314701,25.207343 177.446741,24.8718841 C171.361791,24.4944928 169.851045,28.3103382 164.227711,27.5974879 C158.604378,26.8846377 155.876642,21.3914976 150.421169,19.4626087 Z"/><g id="Group" transform="translate(147.477612, 0.000000)"><path id="Path" fill="#43C3D7" stroke="#43C3D7" stroke-width="1.218" d="M5.29360697,10.1536232 C5.29360697,10.1536232 2.18818408,5.96038647 3.06945274,4.57661836 C3.95072139,3.19285024 8.27313433,5.91845411 8.90261194,6.67323671 C8.90261194,6.67323671 8.90261194,0.844637681 11.084801,0.509178744 C13.26699,0.173719807 14.693806,5.91845411 14.693806,5.91845411 C14.693806,5.91845411 17.6733333,0.844637681 19.4358706,1.38975845 C21.198408,1.93487923 20.3171393,5.33140097 19.4358706,8.18280193 L5.29360697,10.1536232 Z"/><g id="Path"><path fill="#EA3681" stroke="#EA3681" stroke-width="1.512" d="M0.383681592,7.67362319 C0.383681592,4.27710145 5.46146766,1.71922705 11.336592,0.670917874 C18.1769154,-0.503188406 22.7091542,0.670917874 24.5556219,2.64173913 C26.4020896,4.61256039 25.8985075,15.0117874 21.1564428,23.2305314 C20.2165933,25.5379268 18.1394382,27.1876793 15.677722,27.5819316 C13.2160058,27.9761839 10.7269005,27.0577338 9.11243781,25.1594203 C4.4257047,20.3996734 1.36973429,14.2778299 0.383681592,7.67362319 Z" transform="translate(0.000000, 6.589372)"/><path stroke="#FFF" stroke-width="1.218" d="M14.1902239,6.66724638 L15.3232836,8.26067633" transform="translate(0.000000, 6.589372)"/><path stroke="#FFF" stroke-width="1.218" d="M7.22400498,10.3992271 L8.98654229,9.56057971" transform="translate(0.000000, 6.589372)"/><path stroke="#FFF" stroke-width="1.218" d="M19.8135572,12.6216425 L20.6528607,10.9024155" transform="translate(0.000000, 6.589372)"/><path stroke="#FFF" stroke-width="1.218" d="M11.084801,14.7601932 L12.6375124,15.9342995" transform="translate(0.000000, 6.589372)"/><path stroke="#FFF" stroke-width="1.218" d="M12.3857214,21.0081159 L11.336592,22.6434783" transform="translate(0.000000, 6.589372)"/><path stroke="#FFF" stroke-width="1.218" d="M18.6385323,19.2050242 L17.841194,17.4438647" transform="translate(0.000000, 6.589372)"/></g></g><path id="Path" fill="#FFF" stroke="#FC9FE4" stroke-linecap="round" stroke-linejoin="round" stroke-width="1.512" d="M153.442662,36.3613527 C155.557482,33.9949704 158.67592,32.7797305 161.835697,33.090628 C164.833864,33.0210485 167.724662,34.2068693 169.80908,36.3613527"/><g id="Group" transform="translate(145.079602, 143.169082)"><g id="Path" fill="#FFF"><path d="M3.92074627,1.54550725 L3.92074627,0.497198068 L2.53589552,0.497198068 L2.53589552,1.54550725 C2.53589552,2.25835749 1.65462687,1.88096618 1.65462687,2.67768116 L1.65462687,4.18724638 L4.76004975,4.18724638 L4.76004975,2.67768116 C4.76004975,1.79710145 3.92074627,2.25835749 3.92074627,1.54550725 Z" transform="translate(1.798507, 0.000000)"/><path d="M1.65462687,4.18724638 L1.06711443,4.18724638 C0.71276907,4.2094183 0.436942754,4.50340307 0.437636816,4.85816425 L0.437636816,7.20637681 C0.436942754,7.561138 0.71276907,7.85512271 1.06711443,7.87729469 L1.65462687,7.87729469 L1.65462687,4.18724638 Z" transform="translate(1.798507, 0.000000)"/><path d="M3.20733831,7.87729469 L5.34756219,7.87729469 C5.71838979,7.87729469 6.01900498,7.57691451 6.01900498,7.20637681 L6.01900498,4.85816425 C6.01900498,4.48762655 5.71838979,4.18724638 5.34756219,4.18724638 L1.65462687,4.18724638 L1.65462687,7.87729469 L3.20733831,7.87729469 Z" transform="translate(1.798507, 0.000000)"/></g><path id="Path" fill="#F7C1D8" d="M3.45313433,10.770628 L3.45313433,7.87729469 L2.5299005,7.87729469 L2.5299005,9.76425121 C2.64680246,10.6529772 2.09259753,11.4925664 1.2289801,11.7350725 C0.179850746,12.1963285 0.179850746,13.5800966 0.179850746,15.0057971 L0.179850746,25.9920773 C0.179850746,27.2500483 0.683432836,28.0467633 1.81649254,28.0467633 L2.48793532,28.0467633 C2.48793532,24.5244444 2.48793532,15.4670531 2.48793532,13.4542995 C2.44597015,12.1124638 3.45313433,12.3221256 3.45313433,10.770628 Z"/><path id="Path" fill="#EA3681" d="M8.99253731,11.7350725 C8.12891987,11.4925664 7.57471495,10.6529772 7.69161692,9.76425121 L7.69161692,7.87729469 L3.4950995,7.87729469 L3.4950995,10.770628 C3.4950995,12.3221256 2.48793532,12.1124638 2.48793532,13.4542995 L2.48793532,28.0467633 L8.23716418,28.0467633 C9.32825871,28.0467633 9.8318408,27.2500483 9.8318408,25.9920773 L9.8318408,14.7961353 C9.8318408,13.3704348 9.8318408,12.1963285 8.99253731,11.7350725 Z"/><rect id="Rectangle" width="5.581" height="4.193" x="2.236" y="4.187" stroke="#663C1D" stroke-linecap="round" stroke-linejoin="round" stroke-width="1.008" rx=".294"/><path id="Path" stroke="#663C1D" stroke-linecap="round" stroke-linejoin="round" stroke-width="1.008" d="M5.71925373,1.54550725 L5.71925373,0.497198068 L4.33440299,0.497198068 L4.33440299,1.54550725 C4.33440299,2.25835749 3.45313433,1.88096618 3.45313433,2.67768116 L3.45313433,4.18724638 L6.55855721,4.18724638 L6.55855721,2.67768116 C6.55855721,1.79710145 5.71925373,2.25835749 5.71925373,1.54550725 Z"/><path id="Path" stroke="#663C1D" stroke-linecap="round" stroke-linejoin="round" stroke-width="1.008" d="M8.99253731,11.7350725 C8.12891987,11.4925664 7.57471495,10.6529772 7.69161692,9.76425121 L7.69161692,7.87729469 L2.5299005,7.87729469 L2.5299005,9.76425121 C2.64680246,10.6529772 2.09259753,11.4925664 1.2289801,11.7350725 C0.179850746,12.1963285 0.179850746,13.5800966 0.179850746,15.0057971 L0.179850746,25.9920773 C0.179850746,27.2500483 0.683432836,28.0467633 1.81649254,28.0467633 L8.23716418,28.0467633 C9.32825871,28.0467633 9.8318408,27.2500483 9.8318408,25.9920773 L9.8318408,14.7961353 C9.8318408,13.3704348 9.8318408,12.1963285 8.99253731,11.7350725 Z"/></g><g id="Group" transform="translate(157.669154, 143.169082)"><g id="Path" fill="#FFF"><path d="M3.75288557,1.54550725 L3.75288557,0.497198068 L2.36803483,0.497198068 L2.36803483,1.54550725 C2.36803483,2.25835749 1.52873134,1.88096618 1.52873134,2.67768116 L1.52873134,4.18724638 L4.63415423,4.18724638 L4.63415423,2.67768116 C4.63415423,1.79710145 3.75288557,2.25835749 3.75288557,1.54550725 Z" transform="translate(1.798507, 0.000000)"/><path d="M1.52873134,4.18724638 L0.941218905,4.18724638 C0.570391294,4.18724638 0.269776119,4.48762655 0.269776119,4.85816425 L0.269776119,7.20637681 C0.269776119,7.57691451 0.570391294,7.87729469 0.941218905,7.87729469 L1.52873134,7.87729469 L1.52873134,4.18724638 Z" transform="translate(1.798507, 0.000000)"/><path d="M2.99751244,7.87729469 L5.13773632,7.87729469 C5.49208168,7.85512271 5.76790797,7.561138 5.76721393,7.20637681 L5.76721393,4.85816425 C5.76790797,4.50340307 5.49208168,4.2094183 5.13773632,4.18724638 L1.444801,4.18724638 L1.444801,7.87729469 L2.99751244,7.87729469 Z" transform="translate(1.798507, 0.000000)"/></g><path id="Path" fill="#FDE982" d="M3.32723881,10.770628 L3.32723881,7.87729469 L2.40400498,7.87729469 L2.40400498,9.76425121 C2.52090694,10.6529772 1.96670201,11.4925664 1.10308458,11.7350725 C0.0539552239,12.1963285 0.0539552239,13.5800966 0.0539552239,15.0057971 L0.0539552239,25.9920773 C0.0539552239,27.2500483 0.557537313,28.0467633 1.64863184,28.0467633 L2.3620398,28.0467633 C2.3620398,24.5244444 2.3620398,15.4670531 2.3620398,13.4542995 C2.32007463,12.1124638 3.32723881,12.3221256 3.32723881,10.770628 Z"/><path id="Path" fill="#FDBB38" d="M8.65681592,11.7350725 C7.79319848,11.4925664 7.23899356,10.6529772 7.35589552,9.76425121 L7.35589552,7.87729469 L3.15937811,7.87729469 L3.15937811,10.770628 C3.15937811,12.3221256 2.15221393,12.1124638 2.15221393,13.4542995 L2.15221393,28.0467633 L7.85947761,28.0467633 C8.99253731,28.0467633 9.4961194,27.2500483 9.4961194,25.9920773 L9.4961194,14.7961353 C9.70594527,13.3704348 9.70594527,12.1963285 8.65681592,11.7350725 Z"/><rect id="Rectangle" width="5.581" height="4.193" x="2.068" y="4.187" stroke="#663C1D" stroke-linecap="round" stroke-linejoin="round" stroke-width="1.008" rx=".294"/><path id="Path" stroke="#663C1D" stroke-linecap="round" stroke-linejoin="round" stroke-width="1.008" d="M5.55139303,1.54550725 L5.55139303,0.497198068 L4.16654229,0.497198068 L4.16654229,1.54550725 C4.16654229,2.25835749 3.32723881,1.88096618 3.32723881,2.67768116 L3.32723881,4.18724638 L6.43266169,4.18724638 L6.43266169,2.67768116 C6.43266169,1.79710145 5.55139303,2.25835749 5.55139303,1.54550725 Z"/><path id="Path" stroke="#663C1D" stroke-linecap="round" stroke-linejoin="round" stroke-width="1.008" d="M8.65681592,11.7350725 C7.79319848,11.4925664 7.23899356,10.6529772 7.35589552,9.76425121 L7.35589552,7.87729469 L2.40400498,7.87729469 L2.40400498,9.76425121 C2.52090694,10.6529772 1.96670201,11.4925664 1.10308458,11.7350725 C0.0539552239,12.1963285 0.0539552239,13.5800966 0.0539552239,15.0057971 L0.0539552239,25.9920773 C0.0539552239,27.2500483 0.557537313,28.0467633 1.64863184,28.0467633 L8.06930348,28.0467633 C9.20236318,28.0467633 9.70594527,27.2500483 9.70594527,25.9920773 L9.70594527,14.7961353 C9.70594527,13.3704348 9.70594527,12.1963285 8.65681592,11.7350725 Z"/></g></g></g></g></svg>