<svg xmlns="http://www.w3.org/2000/svg" xmlns:xlink="http://www.w3.org/1999/xlink" width="46.326" height="56.29" version="1.1" viewBox="0.281 0.034 46.326 56.29"><defs><linearGradient id="grad_1" x1="352.593" x2="352.593" y1="1042.448" y2="1139.941" gradientUnits="userSpaceOnUse"><stop offset="0" stop-color="#EE2A7B"/><stop offset="1" stop-color="#811150"/></linearGradient><linearGradient id="grad_1-.00033818339579738677,0.46329107880592346,-0.46329107880592346,0.00033818339579738677,56.4,-4.55" x1="-426.438" x2="-471.605" y1="159.156" y2="159.189" gradientUnits="userSpaceOnUse"><stop offset="0" stop-color="#EE2A7B"/><stop offset="1" stop-color="#811150"/></linearGradient></defs><g id="ID0.16137408139184117"><path id="ID0.6278323931619525" fill="url(#grad_1-.00033818339579738677,0.46329107880592346,-0.46329107880592346,0.00033818339579738677,56.4,-4.55)" stroke="#FFF" stroke-width="1.158" d="M 18.4432 38.8927 C 18.4432 38.8927 18.4167 15.9672 18.4091 5.5552 C 18.4072 2.8279 20.6168 0.6154 23.3438 0.6134 C 26.0712 0.6114 28.2831 2.8206 28.2851 5.548 C 28.2915 14.2774 28.3196 38.8587 28.3196 38.8587 C 28.3196 38.8587 29.9886 37.2072 37.5958 29.5884 C 39.5231 27.6583 42.6494 27.656 44.579 29.5833 C 46.5086 31.5115 46.5114 34.6373 44.5841 36.5669 C 38.4162 42.7448 26.8803 54.2961 26.8803 54.2961 C 24.9531 56.2257 21.8263 56.228 19.8971 54.3012 C 19.8971 54.3012 9.9282 44.3473 2.3094 36.7396 C 0.3784 34.8114 0.3761 31.6851 2.3043 29.7559 C 4.2311 27.8258 7.3583 27.8235 9.2865 29.7508 C 15.4662 35.9197 18.4432 38.8927 18.4432 38.8927 Z"/></g></svg>