<svg xmlns="http://www.w3.org/2000/svg" xmlns:xlink="http://www.w3.org/1999/xlink" width="69.551" height="27.446" version="1.1" viewBox="0.225 0.277 69.551 27.446" xml:space="preserve"><g><title>Slice 1</title><desc>Created with Sketch.</desc><g id="Page-1" fill-rule="evenodd" stroke="none"><g id="glasses-b-[people,fashion,glasses]"><path id="Shape" fill="none" stroke="#F93DBF" stroke-linecap="round" stroke-linejoin="round" stroke-width="1.28" d="M 35.7477 11.01 L 37.4977 11.01"/><path id="Shape" fill="none" stroke="#F93DBF" stroke-linecap="round" stroke-linejoin="round" stroke-width="2.128" d="M 11.3591 11.5625 L 1.2886 8.2637"/><path id="Shape" fill="none" stroke="#F93DBF" stroke-linecap="round" stroke-linejoin="round" stroke-width="2.128" d="M 61.7114 11.725 L 68.7114 9.0275"/><polygon id="Shape" fill="#FFD110" fill-rule="nonzero" stroke-width="1" points="13.668 25.659 21.718 21.336 29.768 25.659 29.768 25.659 21.655 14.674" transform="matrix(1,0,0,1,1,1)"/><polygon id="Shape" fill="#FFD110" fill-rule="nonzero" stroke-width="1" points="17.693 8.678 8.689 10.01 21.655 14.674 21.718 .341" transform="matrix(1,0,0,1,1,1)"/><polygon id="Shape" fill="#FFE922" fill-rule="nonzero" stroke-width="1" points="21.655 14.674 29.768 25.659 28.241 16.494 34.748 10.01" transform="matrix(1,0,0,1,1,1)"/><polygon id="Shape" fill="#FFF4A4" fill-rule="nonzero" stroke-width="1" points="25.743 8.678 21.718 .341 21.718 .341 21.655 14.674 34.748 10.01" transform="matrix(1,0,0,1,1,1)"/><polygon id="Shape" fill="#F2C900" fill-rule="nonzero" stroke-width="1" points="8.689 10.01 15.195 16.494 13.668 25.659 21.655 14.674" transform="matrix(1,0,0,1,1,1)"/><polygon id="Shape" fill="#FFD110" fill-rule="nonzero" stroke-width="1" points="41.477 25.659 49.527 21.336 57.577 25.659 57.577 25.659 49.527 14.511" transform="matrix(1,0,0,1,1,1)"/><polygon id="Shape" fill="#FFD110" fill-rule="nonzero" stroke-width="1" points="45.502 8.678 36.498 10.01 49.527 14.511 49.527 .341" transform="matrix(1,0,0,1,1,1)"/><polygon id="Shape" fill="#F2C900" fill-rule="nonzero" stroke-width="1" points="36.498 10.01 43.005 16.494 41.477 25.659 49.527 14.511" transform="matrix(1,0,0,1,1,1)"/><polygon id="Shape" fill="none" stroke="#F93DBF" stroke-linecap="round" stroke-linejoin="round" stroke-width="1.28" points="21.718 .341 25.743 8.678 34.748 10.01 28.241 16.494 29.768 25.659 21.718 21.336 13.668 25.659 15.195 16.494 8.689 10.01 17.693 8.678" transform="matrix(1,0,0,1,1,1)"/><polygon id="Shape" fill="#FFF4A4" fill-rule="nonzero" stroke-width="1" points="62.557 10.01 53.552 8.678 49.527 .341 49.527 .341 49.527 14.511" transform="matrix(1,0,0,1,1,1)"/><polygon id="Shape" fill="#FFE922" fill-rule="nonzero" stroke-width="1" points="62.557 10.01 62.557 10.01 49.527 14.511 57.577 25.659 56.05 16.494" transform="matrix(1,0,0,1,1,1)"/><polygon id="Shape" fill="none" stroke="#F93DBF" stroke-linecap="round" stroke-linejoin="round" stroke-width="1.28" points="49.527 .341 53.552 8.678 62.557 10.01 56.05 16.494 57.577 25.659 49.527 21.336 41.477 25.659 43.005 16.494 36.498 10.01 45.502 8.678" transform="matrix(1,0,0,1,1,1)"/></g></g></g></svg>