<svg xmlns="http://www.w3.org/2000/svg" xmlns:xlink="http://www.w3.org/1999/xlink" width="20" height="20" version="1.1" viewBox="0 0 20 20"><title>copy v2</title><desc>Created with Sketch.</desc><g id="Page-1" fill="none" fill-rule="evenodd" stroke="none" stroke-width="1"><g id="copy-v2"><g id="copy" transform="translate(3.000000, 2.000000)"><polyline id="Path-3" stroke="#575E75" stroke-dasharray="1 2" stroke-linecap="round" stroke-linejoin="round" stroke-opacity=".5" points=".503 3 .503 15.5 13 15.5"/><path id="Rectangle-4" fill="#4C97FF" d="M2,1.00684547 C2,0.450780073 2.45303631,0 2.99703014,0 L10,0 L10,2.34995317 C10,3.26124887 10.7336617,4 11.6500468,4 L14,4 L14,13.0046024 C14,13.5543453 13.544239,14 12.9975267,14 L3.00247329,14 C2.44882258,14 2,13.5500512 2,12.9931545 L2,1.00684547 Z"/><path id="Rectangle-5" fill="#4C97FF" d="M11,0 L14,3 L11.9989566,3 C11.4472481,3 11,2.55733967 11,2.00104344 L11,0 Z"/><path id="Fill-1" fill="#FFF" stroke="#FFF" stroke-width=".25" d="M9.8115942,9.1884058 L8.6884058,9.1884058 L8.6884058,10.3115942 C8.6884058,10.6859903 8.38647343,11 8,11 C7.61352657,11 7.3115942,10.6859903 7.3115942,10.3115942 L7.3115942,9.1884058 L6.1884058,9.1884058 C5.81400966,9.1884058 5.5,8.88647343 5.5,8.5 C5.5,8.11352657 5.81400966,7.8115942 6.1884058,7.8115942 L7.3115942,7.8115942 L7.3115942,6.6884058 C7.3115942,6.31280193 7.61352657,6 8,6 C8.38647343,6 8.6884058,6.31280193 8.6884058,6.6884058 L8.6884058,7.8115942 L9.8115942,7.8115942 C10.1859903,7.8115942 10.5,8.11352657 10.5,8.5 C10.5,8.88647343 10.1859903,9.1884058 9.8115942,9.1884058 Z"/></g></g></g></svg>