<svg xmlns="http://www.w3.org/2000/svg" xmlns:xlink="http://www.w3.org/1999/xlink" width="20" height="20" version="1.1" viewBox="0 0 20 20"><title>group</title><desc>Created with Sketch.</desc><g id="Page-1" fill="none" fill-rule="evenodd" stroke="none" stroke-width="1"><g id="group" stroke-width=".75"><g id="group-icon" transform="translate(2.000000, 2.000000)"><rect id="Rectangle-2" width="3" height="3" x="0" y="0" fill="#FFF" stroke="#4C97FF" stroke-linecap="round" stroke-linejoin="round"/><rect id="Rectangle-2-Copy-2" width="3" height="3" x="13" y="0" fill="#FFF" stroke="#4C97FF" stroke-linecap="round" stroke-linejoin="round"/><rect id="Rectangle-2-Copy" width="3" height="3" x="0" y="13" fill="#FFF" stroke="#4C97FF" stroke-linecap="round" stroke-linejoin="round"/><rect id="Rectangle-2-Copy-3" width="3" height="3" x="13" y="13" fill="#FFF" stroke="#4C97FF" stroke-linecap="round" stroke-linejoin="round"/><path id="Line" stroke="#4C97FF" stroke-linecap="square" d="M1.5,3 L1.5,13"/><path id="Line-Copy" stroke="#4C97FF" stroke-linecap="square" d="M14.5,3 L14.5,13"/><path id="Line-Copy-2" stroke="#4C97FF" stroke-linecap="square" d="M13,1.5 L3,1.5"/><path id="Line-Copy-3" stroke="#4C97FF" stroke-linecap="square" d="M13,14.5 L3,14.5"/><g id="Group" stroke="#575E75" transform="translate(8.000000, 8.000000) rotate(180.000000) translate(-8.000000, -8.000000) translate(4.000000, 4.000000)"><rect id="Rectangle-3-Copy" width="5" height="5" x="3" y="3" fill="#FFF" rx=".5" transform="translate(5.500000, 5.500000) rotate(180.000000) translate(-5.500000, -5.500000)"/><rect id="Rectangle-3" width="5" height="5" x="0" y="0" fill="#575E75" rx=".5" transform="translate(2.500000, 2.500000) rotate(180.000000) translate(-2.500000, -2.500000)"/></g></g></g></g></svg>