<svg xmlns="http://www.w3.org/2000/svg" xmlns:xlink="http://www.w3.org/1999/xlink" width="20" height="20" version="1.1" viewBox="0 0 20 20"><title>paste v2</title><desc>Created with Sketch.</desc><g id="Page-1" fill="none" fill-rule="evenodd" stroke="none" stroke-width="1"><g id="paste-v2"><g id="paste" transform="translate(3.000000, 2.000000)"><polyline id="Path-3" stroke="#575E75" stroke-dasharray="1 2" stroke-linecap="round" stroke-linejoin="round" stroke-opacity=".5" points=".5 .5 .5 13 12.997 13" transform="translate(6.748413, 6.750000) scale(1, -1) translate(-6.748413, -6.750000)"/><path id="Rectangle-4" fill="#4C97FF" d="M2,3.00684547 C2,2.45078007 2.45303631,2 2.99703014,2 L10,2 L10,4.34995317 C10,5.26124887 10.7336617,6 11.6500468,6 L14,6 L14,15.0046024 C14,15.5543453 13.544239,16 12.9975267,16 L3.00247329,16 C2.44882258,16 2,15.5500512 2,14.9931545 L2,3.00684547 Z"/><path id="Rectangle-5" fill="#4C97FF" d="M11,2 L14,5 L11.9989566,5 C11.4472481,5 11,4.55733967 11,4.00104344 L11,2 Z"/><path id="Fill-1" fill="#FFF" d="M8.34791833,12.8771885 C8.26180668,12.9633001 8.14699113,13.0063559 8.03217559,13.0063559 C7.9030081,13.0063559 7.78819256,12.9633001 7.70208091,12.8771885 L5.86503222,11.0401398 C5.73586474,10.8966203 5.69280891,10.7100451 5.76456862,10.5378218 C5.83632834,10.3655985 5.99419971,10.2651349 6.18077497,10.2651349 L6.92707599,10.2651349 L7.28587456,7.66743321 C7.31457845,7.46650601 7.41504205,7.27993075 7.57291342,7.16511521 C7.73078479,7.03594773 7.94606393,6.97853995 8.13263919,7.00724384 C8.47708582,7.06321642 8.74977273,7.33733852 8.79282856,7.66743321 L9.16597907,10.2651349 L9.86922427,10.2651349 C10.0557995,10.2651349 10.2136709,10.3799504 10.2854306,10.5521737 C10.3571903,10.7100451 10.3141345,10.9109723 10.184967,11.0401398 L8.34791833,12.8771885 Z"/></g></g></g></svg>