<svg xmlns="http://www.w3.org/2000/svg" xmlns:xlink="http://www.w3.org/1999/xlink" width="20" height="20" version="1.1" viewBox="0 0 20 20"><title>send-backward</title><desc>Created with Sketch.</desc><g id="Page-1" fill="none" fill-rule="evenodd" stroke="none" stroke-width="1"><g id="send-backward"><g id="send-forward" transform="translate(10.000000, 10.000000) rotate(180.000000) translate(-10.000000, -10.000000) translate(2.000000, 3.000000)"><path id="Fill-1" fill="#4C97FF" d="M12.3476736,5.92549723 L10.2407376,5.92549723 L9.33601611,12.7635981 C9.23807603,13.5476661 8.54025295,14.1003698 7.78121732,13.9846876 C7.16909181,13.8947126 6.69163391,13.3805697 6.6169546,12.7635981 L5.7122331,5.92549723 L3.65426714,5.92549723 C3.0678509,5.92549723 2.78504892,5.19284356 3.190276,4.76867564 L7.53514286,0.192803597 C7.79223558,-0.0642678658 8.20970517,-0.0642678658 8.45333113,0.192803597 L12.812889,4.76867564 C13.2168918,5.19284356 12.9230716,5.92549723 12.3476736,5.92549723"/><path id="Stroke-6" stroke="#575E75" stroke-linecap="round" stroke-linejoin="round" d="M12,8 L16,8"/><path id="Stroke-10" stroke="#575E75" stroke-linecap="round" stroke-linejoin="round" d="M0,8 L4,8"/></g></g></g></svg>