<svg xmlns="http://www.w3.org/2000/svg" xmlns:xlink="http://www.w3.org/1999/xlink" width="20" height="20" version="1.1" viewBox="0 0 20 20"><title>oval-outlined</title><desc>Created with Sketch.</desc><g id="oval-outlined" fill="none" fill-rule="evenodd" stroke="none" stroke-width="1"><g id="Group" fill="#575E75" transform="translate(4.000000, 4.000000)"><polygon id="Fill-1" points="0 9.333 1.333 9.333 1.333 2.667 0 2.667"/><polygon id="Fill-2" points="1.333 2.667 2.667 2.667 2.667 1.333 1.333 1.333"/><polygon id="Fill-3" points="1.333 10.667 2.667 10.667 2.667 9.333 1.333 9.333"/><polygon id="Fill-4" points="2.667 1.333 9.333 1.333 9.333 0 2.667 0"/><polygon id="Fill-5" points="9.333 2.667 10.667 2.667 10.667 1.333 9.333 1.333"/><polygon id="Fill-6" points="10.667 9.333 12 9.333 12 2.667 10.667 2.667"/><polygon id="Fill-7" points="9.333 10.667 10.667 10.667 10.667 9.333 9.333 9.333"/><polygon id="Fill-8" points="2.667 12 9.333 12 9.333 10.667 2.667 10.667"/></g></g></svg>