<svg xmlns="http://www.w3.org/2000/svg" xmlns:svg="http://www.w3.org/2000/svg" id="svg2" width="32" height="32" version="1.1" viewBox="0 0 32 32"><metadata id="metadata35"/><title id="title4">wedo-add-button</title><desc id="desc6">Created with Sketch.</desc><defs id="defs8"><path id="path-1" d="M2,1.00752069 C2,0.451082376 2.45303631,0 2.99703014,0 L9.00296986,0 C9.5536144,0 10,0.442541372 10,1.00752069 L10,3.99267578 L2,3.99267578 L2,1.00752069 Z"/><path id="path-2" d="M14,1.00752069 C14,0.451082376 14.4530363,0 14.9970301,0 L21.0029699,0 C21.5536144,0 22,0.442541372 22,1.00752069 L22,3.99267578 L14,3.99267578 L14,1.00752069 Z"/><rect id="path-3" width="24" height="16" x="0" y="4" rx="1"/></defs><g id="g3963" transform="translate(0.17521071,29.898305)"><rect style="opacity:.12000002;fill:none;stroke:#000;stroke-width:3.74534345;stroke-miterlimit:4;stroke-opacity:1;stroke-dasharray:none" id="rect3937" width="25.86" height="14.334" x="2.895" y="-21.065" rx="7.273"/><rect id="rect3935" width="23.322" height="12.339" x="4.164" y="-20.068" rx="6.559" style="fill:none;stroke:#fff;stroke-width:3.29999995;stroke-miterlimit:4;stroke-opacity:1;stroke-dasharray:none"/><path style="opacity:.12000002;fill:#000;fill-opacity:1;stroke:none" id="path3959" d="m 14.101695,-13.491526 c 0,0.86119 -0.698133,1.559322 -1.559322,1.559322 -0.86119,0 -1.559322,-0.698132 -1.559322,-1.559322 0,-0.861189 0.698132,-1.559322 1.559322,-1.559322 0.861189,0 1.559322,0.698133 1.559322,1.559322 z" transform="matrix(1.4304128,0,0,1.4304128,-7.4264489,5.4001468)"/><path id="path3945" d="m 14.101695,-13.491526 c 0,0.86119 -0.698133,1.559322 -1.559322,1.559322 -0.86119,0 -1.559322,-0.698132 -1.559322,-1.559322 0,-0.861189 0.698132,-1.559322 1.559322,-1.559322 0.861189,0 1.559322,0.698133 1.559322,1.559322 z" transform="translate(-2.0280507,-0.40677897)" style="fill:#fff;fill-opacity:1;stroke:none"/><path id="path3961" d="m 14.101695,-13.491526 c 0,0.86119 -0.698133,1.559322 -1.559322,1.559322 -0.86119,0 -1.559322,-0.698132 -1.559322,-1.559322 0,-0.861189 0.698132,-1.559322 1.559322,-1.559322 0.861189,0 1.559322,0.698133 1.559322,1.559322 z" transform="matrix(1.4304128,0,0,1.4304128,3.1945515,5.4001464)" style="opacity:.12000002;fill:#000;fill-opacity:1;stroke:none"/><path style="fill:#fff;fill-opacity:1;stroke:none" id="path3947" d="m 14.101695,-13.491526 c 0,0.86119 -0.698133,1.559322 -1.559322,1.559322 -0.86119,0 -1.559322,-0.698132 -1.559322,-1.559322 0,-0.861189 0.698132,-1.559322 1.559322,-1.559322 0.861189,0 1.559322,0.698133 1.559322,1.559322 z" transform="translate(8.5929493,-0.40677897)"/></g></svg>